<mxfile host="app.diagrams.net" modified="2023-04-22T07:56:46.876Z" agent="Mozilla/5.0 (Windows NT 10.0; Win64; x64) AppleWebKit/537.36 (KHTML, like Gecko) Chrome/112.0.0.0 Safari/537.36" version="21.2.1" etag="VBykhukLfU2fvr0ftjeT" type="github">
  <diagram name="Strona-1" id="qxjSg54vPQv0uhyIL3Y2">
    <mxGraphModel>
      <root>
        <mxCell id="0" />
        <mxCell id="1" parent="0" />
      </root>
    </mxGraphModel>
  </diagram>
</mxfile>
